<?xml version="1.0" encoding="utf-8"?>
<!-- Generator: Adobe Illustrator 16.0.3, SVG Export Plug-In . SVG Version: 6.00 Build 0)  -->
<!DOCTYPE svg PUBLIC "-//W3C//DTD SVG 1.1//EN" "http://www.w3.org/Graphics/SVG/1.1/DTD/svg11.dtd">
<svg version="1.1" id="Layer_1" xmlns="http://www.w3.org/2000/svg" xmlns:xlink="http://www.w3.org/1999/xlink" x="0px" y="0px"
	 width="275.409px" height="86.405px" viewBox="0 0 275.409 86.405" enable-background="new 0 0 275.409 86.405"
	 xml:space="preserve">
<g>
	<g>
		<circle fill="#00539A" cx="212.104" cy="80.715" r="5.548"/>
		<path fill="#33A544" d="M236.151,80.715c0,3.064-2.487,5.548-5.552,5.548c-3.062,0-5.549-2.483-5.549-5.548
			c0-3.066,2.487-5.549,5.549-5.549C233.664,75.167,236.151,77.649,236.151,80.715z"/>
		<circle fill="#BB8732" cx="249.097" cy="80.715" r="5.548"/>
		<circle fill="#EF4123" cx="267.009" cy="80.715" r="5.548"/>
	</g>
	<g>
		<linearGradient id="SVGID_1_" gradientUnits="userSpaceOnUse" x1="94.9038" y1="82.6626" x2="63.4429" y2="82.6626">
			<stop  offset="0" style="stop-color:#00B6F1"/>
			<stop  offset="0.1228" style="stop-color:#00AADD"/>
			<stop  offset="0.3703" style="stop-color:#0090B8"/>
			<stop  offset="0.65" style="stop-color:#007190"/>
			<stop  offset="1" style="stop-color:#002638"/>
		</linearGradient>
		<polygon fill="url(#SVGID_1_)" points="94.904,84.834 63.443,80.491 63.443,84.834 		"/>
		<linearGradient id="SVGID_2_" gradientUnits="userSpaceOnUse" x1="42.4346" y1="0" x2="42.4346" y2="84.835">
			<stop  offset="0" style="stop-color:#00AEEF"/>
			<stop  offset="0.1228" style="stop-color:#00A4E7"/>
			<stop  offset="0.3703" style="stop-color:#008ED3"/>
			<stop  offset="0.65" style="stop-color:#0072BC"/>
			<stop  offset="1" style="stop-color:#005067"/>
		</linearGradient>
		<polygon fill="url(#SVGID_2_)" points="63.652,84.834 21.217,84.834 21.217,0 42.435,10.608 63.652,0 		"/>
		<linearGradient id="SVGID_3_" gradientUnits="userSpaceOnUse" x1="0" y1="42.417" x2="21.2168" y2="42.417">
			<stop  offset="0" style="stop-color:#00AEEF"/>
			<stop  offset="0.1228" style="stop-color:#00A3E0"/>
			<stop  offset="0.3703" style="stop-color:#008DC3"/>
			<stop  offset="0.65" style="stop-color:#0071A2"/>
			<stop  offset="1" style="stop-color:#005067"/>
		</linearGradient>
		<rect y="21.216" fill="url(#SVGID_3_)" width="21.217" height="42.401"/>
		
			<linearGradient id="SVGID_4_" gradientUnits="userSpaceOnUse" x1="230.5703" y1="135.6567" x2="251.7852" y2="135.6567" gradientTransform="matrix(-1 0 0 -1 315.4375 178.0732)">
			<stop  offset="0" style="stop-color:#00AEEF"/>
			<stop  offset="0.1228" style="stop-color:#00A4E7"/>
			<stop  offset="0.3703" style="stop-color:#008ED3"/>
			<stop  offset="0.65" style="stop-color:#0072BC"/>
			<stop  offset="1" style="stop-color:#005067"/>
		</linearGradient>
		<rect x="63.652" y="21.216" fill="url(#SVGID_4_)" width="21.215" height="42.401"/>
	</g>
	<g>
		<path fill="none" d="M133.338,36.383c-3.486,0-6.048,2.729-6.048,6.427c0,3.78,2.436,6.468,6.048,6.468
			c3.446,0,6.176-2.52,6.176-6.426C139.515,39.07,136.994,36.383,133.338,36.383z"/>
		<rect x="149.201" y="23.066" fill="#3D505A" width="5.586" height="30.915"/>
		<path fill="#3D505A" d="M133.255,31.091c-6.09,0-11.552,4.997-11.552,11.761c0,6.552,5.125,11.719,11.594,11.719
			c6.806,0,11.804-5.293,11.804-11.761C145.102,36.214,139.768,31.091,133.255,31.091z M133.338,49.278
			c-3.612,0-6.048-2.688-6.048-6.468c0-3.698,2.563-6.427,6.048-6.427c3.656,0,6.176,2.688,6.176,6.469
			C139.515,46.758,136.784,49.278,133.338,49.278z"/>
		<polygon fill="#3D505A" points="116.893,23.445 111.306,23.445 111.306,31.679 108.45,31.679 108.45,36.424 111.306,36.424 
			111.306,53.981 116.893,53.981 116.893,36.424 120.212,36.424 120.212,31.679 116.893,31.679 		"/>
		<path fill="#3D505A" d="M172.149,31.091c-2.478,0-4.452,1.049-6.596,2.856v-2.268h-5.586v22.302h5.586v-9.492
			c0-2.31-0.041-4.327,1.093-6.131c0.883-1.387,2.227-2.143,3.782-2.143c3.401,0,3.779,2.814,3.779,7.225v10.542h5.586V38.735
			C179.794,33.947,176.31,31.091,172.149,31.091z"/>
	</g>
	<g>
		<path fill="none" d="M223.209,36.256c-3.696,0-6.09,2.856-6.09,6.301c0,3.697,2.686,6.301,6.175,6.301
			c3.442,0,6.006-2.479,6.006-6.258C229.3,38.987,226.905,36.256,223.209,36.256z"/>
		<path fill="none" d="M195.628,36.214c-3.698,0-6.051,2.94-6.051,6.596c0,3.821,2.562,6.636,6.051,6.636
			c3.443,0,6.131-2.604,6.131-6.679C201.759,38.86,199.154,36.214,195.628,36.214z"/>
		<path fill="none" d="M263.646,36.383c-3.485,0-6.049,2.729-6.049,6.427c0,3.78,2.438,6.468,6.049,6.468
			c3.444,0,6.175-2.52,6.175-6.426C269.821,39.07,267.302,36.383,263.646,36.383z"/>
		<path d="M201.507,34.115c-2.017-2.017-4.326-3.024-7.015-3.024c-5.797,0-10.501,4.787-10.501,11.761
			c0,6.846,4.955,11.719,10.628,11.719c2.813,0,4.915-1.01,6.888-2.941v2.352h5.587V31.679h-5.587V34.115z M195.628,49.446
			c-3.489,0-6.051-2.814-6.051-6.636c0-3.655,2.353-6.596,6.051-6.596c3.526,0,6.131,2.646,6.131,6.552
			C201.759,46.841,199.071,49.446,195.628,49.446z"/>
		<path d="M263.564,31.091c-6.091,0-11.552,4.997-11.552,11.761c0,6.552,5.124,11.719,11.593,11.719
			c6.806,0,11.804-5.293,11.804-11.761C275.409,36.214,270.073,31.091,263.564,31.091z M263.646,49.278
			c-3.611,0-6.049-2.688-6.049-6.468c0-3.698,2.563-6.427,6.049-6.427c3.655,0,6.175,2.688,6.175,6.469
			C269.821,46.758,267.091,49.278,263.646,49.278z"/>
		<path d="M229.005,34.115c-2.1-1.975-4.283-2.984-7.057-2.984c-5.668,0-10.416,4.496-10.416,11.384
			c0,6.679,4.704,11.466,10.711,11.466c2.897,0,4.914-0.965,6.762-2.771c0,2.101-0.041,3.612-1.385,4.872
			c-1.008,0.924-2.689,1.471-4.747,1.471c-2.354,0-4.033-0.59-5.165-1.934h-6.176c1.513,4.662,5.419,7.057,11.552,7.057
			c3.402,0,6.09-0.797,8.105-2.478c2.562-2.185,3.444-5.083,3.444-9.409V31.679h-5.629V34.115z M223.294,48.858
			c-3.489,0-6.175-2.604-6.175-6.301c0-3.445,2.394-6.301,6.09-6.301s6.091,2.731,6.091,6.344
			C229.3,46.378,226.736,48.858,223.294,48.858z"/>
		<path d="M244.365,34.493v-2.814h-4.831v22.302h5.588v-9.029c0-1.219,0-2.604,0.042-3.823c0.127-3.275,1.384-5.124,2.98-5.124
			c0.591,0,1.22,0.251,1.639,0.461l1.722-4.787c-0.545-0.253-1.258-0.631-2.436-0.631C247.221,31.047,245.416,32.181,244.365,34.493
			z"/>
	</g>
	<path d="M117.279,73.439c1.952,0,3.659,0.778,4.852,2.351l1.081-0.814c-1.345-1.877-3.45-2.861-5.952-2.861
		c-4.228,0-7.336,3.052-7.336,7.069c0,4.001,2.786,7.203,7.336,7.203c2.482,0,4.548-0.929,5.952-2.692l-1.081-0.814
		c-1.27,1.479-2.88,2.256-4.776,2.256c-3.43,0-6.008-2.464-6.008-5.838C111.347,75.829,114.057,73.439,117.279,73.439z
		 M126.926,75.241c0-0.892,0.664-1.727,1.839-1.727c1.118,0,1.763,0.703,2.502,1.67l1.099-0.854
		c-0.891-1.212-1.895-2.217-3.563-2.217c-1.839,0-3.298,1.307-3.298,3.184c0,3.563,5.648,4.701,5.648,7.47
		c0,1.269-1.1,2.312-2.521,2.312c-1.043,0-2.028-0.758-2.844-2.256l-1.156,0.701c1.005,1.838,2.236,2.881,4.113,2.881
		c2.218,0,3.829-1.743,3.829-3.658C132.576,79.05,126.926,77.875,126.926,75.241z M141.251,72.114c-3.924,0-7.072,3.146-7.072,7.201
		c0,3.811,2.996,7.09,7.186,7.09c4.036,0,7.165-3.146,7.165-7.146C148.53,75.203,145.384,72.114,141.251,72.114z M141.327,85.079
		c-3.07,0-5.726-2.407-5.726-5.764c0-3.486,2.73-5.876,5.726-5.876c3.014,0,5.781,2.351,5.781,5.802
		C147.108,82.651,144.512,85.079,141.327,85.079z M157.329,72.795c-0.664-0.246-1.726-0.34-3.147-0.34h-3.146v13.608h1.364v-6.331
		h1.347c1.876,0,3.278-0.076,4.246-0.683c0.966-0.606,1.572-1.687,1.572-2.976C159.564,74.54,158.712,73.327,157.329,72.795z
		 M157.348,77.837c-0.606,0.493-1.517,0.567-2.692,0.567c-0.7,0-1.478,0.02-2.256,0V73.8h2.407c1.062,0,1.877,0.037,2.483,0.491
		c0.513,0.398,0.854,1.081,0.854,1.783C158.144,76.758,157.821,77.458,157.348,77.837z M168.195,72.114
		c-3.926,0-7.071,3.146-7.071,7.201c0,3.811,2.994,7.09,7.185,7.09c4.036,0,7.163-3.146,7.163-7.146
		C175.472,75.203,172.326,72.114,168.195,72.114z M168.271,85.079c-3.07,0-5.726-2.407-5.726-5.764c0-3.486,2.731-5.876,5.726-5.876
		c3.013,0,5.78,2.351,5.78,5.802C174.051,82.651,171.454,85.079,168.271,85.079z M186.146,77.762
		c0.304-0.607,0.398-1.004,0.398-1.688c0-1.535-0.834-2.748-2.238-3.279c-0.662-0.246-1.743-0.34-3.164-0.34h-3.128v13.608h1.365
		v-6.331h0.777l4.891,6.331h1.687l-4.91-6.331C184.079,79.733,185.443,79.183,186.146,77.762z M179.379,78.405V73.8h2.786
		c2.047,0,2.958,0.947,2.958,2.274c0,0.701-0.322,1.365-0.817,1.763c-0.585,0.474-1.496,0.587-2.672,0.587
		C180.915,78.424,180.138,78.405,179.379,78.405z M187.708,72.456V73.8h3.071v12.264h1.364V73.8h3.033v-1.345H187.708z"/>
</g>
</svg>
